<svg fill="none" height="26" viewBox="0 0 1136 180" width="168"
     xmlns="http://www.w3.org/2000/svg"
     data-automation="myer-logo">
    <g fill="#1f1f1f">
        <path
                d="M181.345 0L140.017 80.9964L98.6859 0H-0.000244141V179.053H24.3022V61.8109L84.2637 179.053H137.379L189.127 61.8109V179.053H279.344V0H181.345ZM1135.92 51.2313C1135.59 15.7004 1104.63 0 1066.02 0H876.729V179.049H970.706V109.736L1026.47 179.049H1135.92L1074.16 102.152C1108.77 99.6536 1136.2 81.8085 1135.92 51.2313ZM1009.98 65.4786H970.597V37.0967H1009.98C1021.99 37.0967 1031.62 41.4443 1031.73 51.2896C1031.82 60.4433 1021.99 65.4786 1009.98 65.4786ZM851.642 0V37.0928H706.93V70.9802H836.081V108.073H706.93V141.964H851.642V179.057H613.062V0H851.642ZM527.489 0L475.997 68.4819L418.037 0H299.431L398.35 117.001V179.053H501.609V121.353L592.975 0H527.489Z"
                fill="#1F1F1F"></path>
    </g>
</svg>